<svg width="109" height="114" viewBox="0 0 109 114" fill="none" xmlns="http://www.w3.org/2000/svg">
<g id="Patterns">
<g id="Group">
<g id="Group_2">
<path id="Vector" d="M16.9278 65.0544C28.5585 82.9001 51.81 99.5791 77.713 94.9274C78.419 94.8036 78.8532 94.1181 78.8192 93.5204C78.3842 87.1541 74.3184 81.5347 70.5834 76.6466C66.1288 70.7993 61.1739 65.7885 54.5677 61.8739C48.4799 58.2631 42.1251 56.3068 34.4994 55.8968C30.6826 55.6837 26.8053 55.7773 22.9403 55.9441C21.2159 56.0259 19.4727 56.1168 17.7373 56.2237C16.5198 56.2979 15.0873 56.1195 13.9401 56.6747C13.2631 57.0023 13.037 57.6862 13.2558 58.2341C14.1642 60.6867 15.7451 62.7543 16.9278 65.0544C17.5869 66.3202 19.9454 65.1986 19.2786 63.9167C18.0958 61.6167 16.5149 59.549 15.5954 57.1216C15.3636 57.6498 15.1318 58.1779 14.9111 58.681C15.6821 58.3078 17.8718 58.516 18.8435 58.4617C20.4694 58.3681 22.1031 58.2907 23.7179 58.2223C27.2011 58.0818 30.6965 58.0145 34.1347 58.2127C41.4804 58.6196 47.5098 60.5749 53.3617 64.0819C59.4728 67.7409 64.0222 72.3933 68.1873 77.7864C71.8213 82.4658 75.8626 87.9387 76.2874 94.092C76.6598 93.6146 77.0212 93.1624 77.3936 92.685C64.9197 94.9184 53.0188 91.5258 43.2108 86.0309C33.437 80.5589 25.1305 72.8912 19.2708 63.9007C18.4957 62.7306 16.1372 63.8522 16.9278 65.0544Z" fill="#DDDDDD"/>
</g>
</g>
<g id="Group_3">
<g id="Group_4">
<path id="Vector_2" d="M16.4067 59.8988C28.0884 64.2295 38.9991 69.8445 49.3616 76.1013C53.8223 78.7959 58.4277 81.262 62.9889 83.8287C67.7484 86.5173 72.5525 89.4419 75.7311 93.7078C76.5893 94.8575 78.6084 93.2266 77.7503 92.0769C74.6759 87.9784 70.1175 85.034 65.5518 82.41C60.6925 79.6112 55.7184 77.0066 50.9298 74.1141C40.3768 67.7515 29.2879 62.1038 17.4047 57.6924C15.9374 57.1545 14.9738 59.3839 16.4067 59.8988Z" fill="#DDDDDD"/>
</g>
</g>
<g id="Group_5">
<g id="Group_6">
<path id="Vector_3" d="M70.0823 90.6166C57.4889 86.6083 44.5226 82.7409 34.2162 75.209C33.0285 74.3377 31.4869 76.3318 32.6745 77.2031C43.1261 84.843 56.3127 88.7821 69.0921 92.8391C70.5737 93.3106 71.545 91.0973 70.0823 90.6166Z" fill="#DDDDDD"/>
</g>
</g>
<g id="Group_7">
<g id="Group_8">
<path id="Vector_4" d="M60.1139 73.5711C54.3041 69.1919 47.4281 66.3984 40.4172 63.7098C38.9876 63.1537 38.024 65.3831 39.4459 65.9231C46.2896 68.554 52.9342 71.301 58.5911 75.5562C59.7489 76.4618 61.2828 74.4516 60.1139 73.5711Z" fill="#DDDDDD"/>
</g>
</g>
<g id="Group_9">
<g id="Group_10">
<path id="Vector_5" d="M33.5304 70.5876C31.0476 68.7186 28.8412 66.5575 26.1417 64.9122C25.6078 64.5764 24.7669 64.805 24.3535 65.3418C23.9214 65.8877 24.0551 66.5956 24.6078 66.9224C27.3073 68.5676 29.5137 70.7288 31.9965 72.5977C32.5006 72.9679 33.4012 72.6707 33.7847 72.1681C34.2201 71.581 34.0157 70.9668 33.5304 70.5876Z" fill="#DDDDDD"/>
</g>
</g>
<g id="Group_11">
<g id="Group_12">
<g id="Group_13">
<path id="Vector_6" d="M13.2986 36.6994C33.351 46.8641 63.6746 51.107 85.9692 36.5536C86.6074 36.1457 86.5068 35.3623 86.1986 34.9172C82.5351 29.6974 75.6709 26.6406 69.6077 24.0877C62.9054 21.2695 56.224 19.2138 48.5614 18.5838C40.8723 17.9469 33.7494 18.7198 26.1441 21.4693C22.2341 22.8862 18.4341 24.6261 14.673 26.4464C12.9993 27.2564 11.3145 28.0915 9.64857 28.9176C8.47157 29.507 7.01657 29.9537 6.16991 30.9379C5.84163 31.3147 5.79379 32.0311 6.17605 32.3414C8.32442 34.0948 10.9303 35.2109 13.2986 36.6994C14.5647 37.4932 16.1064 35.4991 14.8402 34.7053C12.6624 33.3227 10.1751 32.3077 8.1764 30.7196C8.17477 31.1958 8.18418 31.6469 8.18255 32.1231C8.71974 31.5066 11.0897 30.6964 12.0112 30.2504C13.5831 29.4699 15.155 28.6893 16.7424 27.9409C20.1353 26.3187 23.5669 24.7768 27.104 23.5008C34.3741 20.8738 41.2726 20.3086 48.5909 20.9467C55.8904 21.5939 62.273 23.6556 68.6486 26.3743C74.3508 28.8048 80.7322 31.6792 84.1683 36.5733C84.2485 36.0195 84.3176 35.4908 84.3977 34.9369C73.6706 41.931 60.6529 43.9522 48.5906 43.3913C36.5737 42.8282 24.8781 39.8117 14.848 34.7214C13.4923 34.0304 11.9507 36.0245 13.2986 36.6994Z" fill="#DDDDDD"/>
</g>
</g>
<g id="Group_14">
<g id="Group_15">
<path id="Vector_7" d="M9.89974 32.6012C23.5593 31.3788 37.0778 31.5916 50.4324 32.6166C55.9319 33.0454 61.4841 33.1515 67.0045 33.4316C72.5514 33.7186 78.301 34.1848 83.1595 36.3105C84.5405 36.91 86.0899 34.9319 84.7012 34.3164C75.1592 30.1388 63.285 31.3093 52.6114 30.4527C38.669 29.316 24.5249 29.0098 10.2456 30.2944C8.6242 30.4452 8.27836 32.752 9.89974 32.6012Z" fill="#DDDDDD"/>
</g>
</g>
<g id="Group_16">
<g id="Group_17">
<path id="Vector_8" d="M76.4281 36.1613C62.5943 37.983 48.4201 40.1082 35.0001 38.0848C33.4457 37.8465 32.4556 40.0689 34.0287 40.2981C47.9038 42.3985 62.43 40.2812 76.7474 38.4037C78.3831 38.1866 78.045 35.9533 76.4281 36.1613Z" fill="#DDDDDD"/>
</g>
</g>
<g id="Group_18">
<g id="Group_19">
<path id="Vector_9" d="M58.7406 26.0395C51.0208 24.7637 43.1371 25.2115 35.1119 25.8465C33.4827 25.9812 33.1369 28.288 34.766 28.1533C42.5455 27.5381 50.262 27.0327 57.7692 28.2529C59.3314 28.5072 60.3027 26.2938 58.7406 26.0395Z" fill="#DDDDDD"/>
</g>
</g>
<g id="Group_20">
<g id="Group_21">
<path id="Vector_10" d="M32.0248 34.4887C28.6238 33.9357 25.3507 33.0237 21.8549 32.7544C21.2073 32.7112 20.4919 33.2952 20.4085 33.8902C20.3374 34.5585 20.8083 35.0041 21.4903 35.0703C22.3537 35.1279 22.998 35.2123 23.7752 35.3314C24.6055 35.4644 25.4248 35.6226 26.244 35.7808C27.8372 36.0993 29.4006 36.452 31.0158 36.7202C31.6491 36.8298 32.4291 36.5711 32.6707 35.9193C32.9324 35.3569 32.7112 34.6121 32.0248 34.4887Z" fill="#DDDDDD"/>
</g>
</g>
</g>
</g>
</svg>
